<?xml version="1.0" encoding="UTF-8" standalone="no"?>
<svg
   id="Layer_1"
   data-name="Layer 1"
   viewBox="0 0 122.88 122.88"
   version="1.1"
   sodipodi:docname="ten-and-a-half-o-clock-icon.svg"
   inkscape:version="1.1.2 (0a00cf5339, 2022-02-04)"
   xmlns:inkscape="http://www.inkscape.org/namespaces/inkscape"
   xmlns:sodipodi="http://sodipodi.sourceforge.net/DTD/sodipodi-0.dtd"
   xmlns="http://www.w3.org/2000/svg"
   xmlns:svg="http://www.w3.org/2000/svg">
  <defs
     id="defs9" />
  <sodipodi:namedview
     id="namedview7"
     pagecolor="#ffffff"
     bordercolor="#666666"
     borderopacity="1.0"
     inkscape:pageshadow="2"
     inkscape:pageopacity="0.0"
     inkscape:pagecheckerboard="0"
     showgrid="false"
     inkscape:zoom="6.7626955"
     inkscape:cx="34.823393"
     inkscape:cy="61.439999"
     inkscape:window-width="1920"
     inkscape:window-height="1011"
     inkscape:window-x="0"
     inkscape:window-y="39"
     inkscape:window-maximized="1"
     inkscape:current-layer="Layer_1" />
  <title
     id="title2">ten-and-a-half-o-clock</title>
  <ellipse
     style="opacity:1;fill:#ffffff;fill-opacity:1"
     id="path1675"
     cx="61.872555"
     cy="61.268665"
     rx="59.528133"
     ry="58.037155" />
  <path
     d="M61.44,0A61.46,61.46,0,1,1,18,18,61.21,61.21,0,0,1,61.44,0Zm0,56.2a5.24,5.24,0,0,1,3.16,9.42v16a2.08,2.08,0,0,1,1.74.39,2.11,2.11,0,0,1,.38,3l-3.6,4.66a2.13,2.13,0,0,1-1.65.82h-.06a2.13,2.13,0,0,1-1.65-.82L56.16,85a2.11,2.11,0,0,1,2.12-3.35v-16a5.26,5.26,0,0,1-1.92-2.92L46.09,54a2.09,2.09,0,0,1-1.44,1.08,2.12,2.12,0,0,1-2.49-1.64L41,47.71a2.14,2.14,0,0,1,.33-1.63h0l0,0h0a2.13,2.13,0,0,1,1.83-.88l5.87.32a2.12,2.12,0,0,1,1.19,3.78l8.88,7.49a5.18,5.18,0,0,1,2.32-.55Zm42.44,12.35A7.14,7.14,0,0,1,101,68a4.83,4.83,0,0,1-2-1.56,3.84,3.84,0,0,1-.73-2.29H102a1.25,1.25,0,0,0,.25.72,1.68,1.68,0,0,0,.66.49,2.61,2.61,0,0,0,1,.17,2.25,2.25,0,0,0,.92-.18,1.59,1.59,0,0,0,.62-.52,1.33,1.33,0,0,0,.22-.76,1.1,1.1,0,0,0-.26-.74,1.62,1.62,0,0,0-.72-.51,3,3,0,0,0-1.08-.18H102.2V60h1.41a2.57,2.57,0,0,0,1-.18,1.52,1.52,0,0,0,.67-.51,1.13,1.13,0,0,0,.23-.74,1.25,1.25,0,0,0-.19-.72,1.41,1.41,0,0,0-.57-.48,1.84,1.84,0,0,0-.83-.18,2.25,2.25,0,0,0-.92.18,1.53,1.53,0,0,0-.63.51,1.36,1.36,0,0,0-.24.74H98.53a3.8,3.8,0,0,1,.7-2.24,4.61,4.61,0,0,1,1.9-1.53,7.31,7.31,0,0,1,5.49,0,4.48,4.48,0,0,1,1.85,1.43,3.44,3.44,0,0,1,.66,2.08,2.42,2.42,0,0,1-.8,1.9,3.46,3.46,0,0,1-2,.88v.11a4.12,4.12,0,0,1,2.52,1,2.83,2.83,0,0,1,.83,2.12,3.39,3.39,0,0,1-.73,2.15,4.73,4.73,0,0,1-2,1.47,7.79,7.79,0,0,1-3,.54ZM19,54.3a6.92,6.92,0,0,1,2.29.38,5.25,5.25,0,0,1,1.92,1.21A5.67,5.67,0,0,1,24.52,58,9.44,9.44,0,0,1,25,61.25a10.38,10.38,0,0,1-.43,3.06,6.87,6.87,0,0,1-1.22,2.31,5.27,5.27,0,0,1-1.9,1.45,5.84,5.84,0,0,1-2.47.51,5.9,5.9,0,0,1-2.7-.59,4.85,4.85,0,0,1-1.85-1.58,4.64,4.64,0,0,1-.81-2.21h3.71a1.29,1.29,0,0,0,.59.91,2.07,2.07,0,0,0,1.06.28,1.82,1.82,0,0,0,1.73-1,5.78,5.78,0,0,0,.56-2.75h-.08a2.76,2.76,0,0,1-.8,1.09,3.75,3.75,0,0,1-1.24.69,4.37,4.37,0,0,1-1.5.25,4.22,4.22,0,0,1-2.2-.57A3.85,3.85,0,0,1,14,61.51a5.18,5.18,0,0,1,.18-4.86,4.69,4.69,0,0,1,1.95-1.73A6.47,6.47,0,0,1,19,54.3Zm0,2.84a2,2,0,0,0-1,.26,1.76,1.76,0,0,0-.68.7,1.89,1.89,0,0,0-.24,1,1.93,1.93,0,0,0,.24,1,1.83,1.83,0,0,0,.68.7,2,2,0,0,0,1,.26,1.87,1.87,0,0,0,.76-.15,1.94,1.94,0,0,0,.6-.41,2.08,2.08,0,0,0,.41-.63,2.22,2.22,0,0,0,.15-.79,2,2,0,0,0-.26-1,1.83,1.83,0,0,0-.68-.7,1.91,1.91,0,0,0-1-.26Zm42.64,51.14a7,7,0,0,1-2.3-.38,5.09,5.09,0,0,1-1.91-1.21,5.52,5.52,0,0,1-1.31-2.15,9.44,9.44,0,0,1-.48-3.21,10.38,10.38,0,0,1,.43-3.06A6.74,6.74,0,0,1,57.33,96a5.3,5.3,0,0,1,1.9-1.46,5.94,5.94,0,0,1,2.46-.5,5.76,5.76,0,0,1,2.69.59,4.88,4.88,0,0,1,1.86,1.58,4.64,4.64,0,0,1,.81,2.21H63.34a1.29,1.29,0,0,0-.59-.91,2,2,0,0,0-1.06-.28,1.83,1.83,0,0,0-1.73,1A6,6,0,0,0,59.4,101h.08a2.83,2.83,0,0,1,.8-1.09,3.75,3.75,0,0,1,1.24-.69A4.63,4.63,0,0,1,63,99a4.17,4.17,0,0,1,2.2.57,3.94,3.94,0,0,1,1.47,1.56,4.73,4.73,0,0,1,.52,2.25,4.81,4.81,0,0,1-.7,2.61,4.72,4.72,0,0,1-2,1.73,6.42,6.42,0,0,1-2.88.61Zm0-2.84a2,2,0,0,0,1-.25,1.79,1.79,0,0,0,.68-.71,2,2,0,0,0,.24-1,2,2,0,0,0-.24-1,1.83,1.83,0,0,0-.68-.7,2,2,0,0,0-1-.26,2.06,2.06,0,0,0-.76.15,1.94,1.94,0,0,0-.6.41,1.91,1.91,0,0,0-.41.63,2.06,2.06,0,0,0-.15.79,2,2,0,0,0,.26,1,1.86,1.86,0,0,0,.68.71,1.88,1.88,0,0,0,1,.25Zm-.75-77.08v-2.7l5.16-4.27a10.43,10.43,0,0,0,.88-.8,3,3,0,0,0,.57-.77,2,2,0,0,0,.2-.89,1.64,1.64,0,0,0-.23-.91,1.53,1.53,0,0,0-.62-.59,2.17,2.17,0,0,0-1.84,0,1.44,1.44,0,0,0-.61.61,2.13,2.13,0,0,0-.21,1H60.62a4.66,4.66,0,0,1,.65-2.52,4.36,4.36,0,0,1,1.85-1.62,6.5,6.5,0,0,1,2.81-.57,7.22,7.22,0,0,1,2.88.53,4.31,4.31,0,0,1,1.89,1.49,3.87,3.87,0,0,1,.66,2.25A4.08,4.08,0,0,1,71,20.19a6.67,6.67,0,0,1-1.19,1.74A23.13,23.13,0,0,1,67.4,24.2l-1.29,1.08v.08h5.4v3ZM58.24,14.52V28.36H54.48V18H54.4l-3,1.81V16.6l3.41-2.08Zm-25,11.85a2.27,2.27,0,0,1,3.94-2.26l1.88,3.27a2.27,2.27,0,1,1-3.93,2.26l-1.89-3.27ZM20,41.76a2.28,2.28,0,0,1,2.28-3.94l3.28,1.89a2.28,2.28,0,0,1-2.29,3.94L20,41.76Zm4.31,45.33a2.27,2.27,0,0,1-2.27-3.94l3.27-1.89a2.27,2.27,0,0,1,2.27,3.94l-3.27,1.89Zm15.39,13.73a2.28,2.28,0,0,1-3.94-2.29l1.89-3.27a2.28,2.28,0,0,1,3.94,2.28l-1.89,3.28Zm47.36-2.28a2.27,2.27,0,0,1-3.94,2.27l-1.89-3.27a2.27,2.27,0,0,1,3.94-2.27l1.89,3.27Zm13.73-15.39a2.28,2.28,0,0,1-2.29,3.94L95.26,85.2a2.28,2.28,0,0,1,2.28-3.94l3.28,1.89Zm-.24-45.32a2.27,2.27,0,1,1,2.26,3.93l-3.27,1.89a2.27,2.27,0,0,1-2.27-3.94l3.28-1.88ZM85.88,24.16a2.28,2.28,0,0,1,3.94,2.28l-1.89,3.27A2.28,2.28,0,0,1,84,27.43l1.89-3.27Zm14.67-1.83a55.31,55.31,0,1,0,16.2,39.11,55.14,55.14,0,0,0-16.2-39.11Z"
     id="path4"
     style="opacity:1;fill:#3a0054;fill-opacity:1" />
</svg>
